<svg width="512" height="512" viewBox="0 0 512 512" fill="none" xmlns="http://www.w3.org/2000/svg">
<path d="M119.4 44.0999C142.7 40.1999 166.2 42.1999 188 49.3999L237.8 126.9L162.4 202.3C160.9 203.8 160 205.9 160.1 208.1C160.2 210.3 161.1 212.3 162.7 213.8L274.7 317.8C277.6 320.5 282.1 320.7 285.2 318.1C288.3 315.5 289 311.1 286.9 307.7L226.5 209.6L317.2 134C319.8 131.9 320.7 128.3 319.6 125.2L296.8 61.7999C325.3 45.0999 359.2 38.5999 392.5 44.1999C461.5 55.5999 512 115.2 512 185.1V190.9C512 232.4 494.8 272.1 464.4 300.4L283.7 469.1C276.2 476.1 266.3 480 256 480C245.7 480 235.8 476.1 228.3 469.1L47.6 300.4C17.2 272.1 0 232.4 0 190.9V185.1C0 115.2 50.5 55.5999 119.4 44.0999Z" fill="#F0C557"/>
</svg>
