<svg width="576" height="512" viewBox="0 0 576 512" fill="none" xmlns="http://www.w3.org/2000/svg">
<g clip-path="url(#clip0_147_2)">
<path d="M47.6 300.4L228.3 469.1C235.8 476.1 245.7 480 256 480C266.3 480 276.2 476.1 283.7 469.1L286.3 466.7C267.2 438.6 256 404.6 256 368C256 270.8 334.8 192 432 192C460.3 192 487 198.7 510.7 210.5C511.6 204 512 197.5 512 190.9V185.1C512 115.2 461.5 55.6 392.6 44.1C347 36.5 300.6 51.4 268 84L256 96L244 84C211.4 51.4 165 36.5 119.4 44.1C50.5 55.6 0 115.2 0 185.1V190.9C0 232.4 17.2 272.1 47.6 300.4ZM432 512C470.191 512 506.818 496.829 533.823 469.823C560.829 442.818 576 406.191 576 368C576 329.809 560.829 293.182 533.823 266.177C506.818 239.171 470.191 224 432 224C393.809 224 357.182 239.171 330.177 266.177C303.171 293.182 288 329.809 288 368C288 406.191 303.171 442.818 330.177 469.823C357.182 496.829 393.809 512 432 512ZM448 304V352H496C504.8 352 512 359.2 512 368C512 376.8 504.8 384 496 384H448V432C448 440.8 440.8 448 432 448C423.2 448 416 440.8 416 432V384H368C359.2 384 352 376.8 352 368C352 359.2 359.2 352 368 352H416V304C416 295.2 423.2 288 432 288C440.8 288 448 295.2 448 304Z" fill="#DA3C3C"/>
</g>
<defs>
<clipPath id="clip0_147_2">
<rect width="576" height="512" fill="white"/>
</clipPath>
</defs>
</svg>
