<svg width="48" height="48" viewBox="0 0 48 48" fill="none" xmlns="http://www.w3.org/2000/svg">
<g filter="url(#filter0_d)">
<circle cx="24" cy="24" r="20" fill="white"/>
</g>
<path d="M13 14C12.4477 14 12 14.4477 12 15C12 15.5523 12.4477 16 13 16V14ZM15.2222 15L16.2026 14.8029C16.1087 14.3359 15.6985 14 15.2222 14V15ZM14.6863 17.4076C14.7952 17.9491 15.3223 18.2997 15.8638 18.1909C16.4052 18.082 16.7559 17.5548 16.647 17.0134L14.6863 17.4076ZM17.4444 25.0525C16.8922 25.0525 16.4444 25.5002 16.4444 26.0525C16.4444 26.6048 16.8922 27.0525 17.4444 27.0525V25.0525ZM28.5556 26.0525V27.0525C28.9336 27.0525 29.2793 26.8394 29.449 26.5016L28.5556 26.0525ZM33 17.2105L33.8935 17.6596C34.0493 17.3496 34.0333 16.981 33.8512 16.6857C33.6691 16.3903 33.347 16.2105 33 16.2105V17.2105ZM15.6667 16.2105C15.1144 16.2105 14.6667 16.6582 14.6667 17.2105C14.6667 17.7628 15.1144 18.2105 15.6667 18.2105V16.2105ZM16.4641 26.2496C16.5729 26.7911 17.1001 27.1418 17.6416 27.0329C18.183 26.924 18.5337 26.3969 18.4248 25.8554L16.4641 26.2496ZM16.647 17.0134C16.5382 16.4719 16.011 16.1213 15.4696 16.2301C14.9281 16.339 14.5774 16.8662 14.6863 17.4076L16.647 17.0134ZM18.1497 26.7615C18.5412 26.372 18.5429 25.7388 18.1534 25.3473C17.7639 24.9557 17.1308 24.9541 16.7392 25.3436L18.1497 26.7615ZM14.8967 28.5869L14.1914 27.8779L14.8967 28.5869ZM28.5556 31.4735C29.1078 31.4735 29.5556 31.0258 29.5556 30.4735C29.5556 29.9213 29.1078 29.4735 28.5556 29.4735V31.4735ZM28.5556 30.4735H27.5556C27.5556 30.7397 27.6616 30.9948 27.8503 31.1825L28.5556 30.4735ZM30.7778 32.684L30.0725 33.393C30.2599 33.5794 30.5135 33.684 30.7778 33.684V32.684ZM19.6667 32.684L18.8018 32.1821C18.7133 32.3345 18.6667 32.5077 18.6667 32.684H19.6667ZM19.6667 34.8945H18.6667C18.6667 35.0709 18.7133 35.244 18.8018 35.3965L19.6667 34.8945ZM13 16H15.2222V14H13V16ZM14.2418 15.1971L14.6863 17.4076L16.647 17.0134L16.2026 14.8029L14.2418 15.1971ZM17.4444 27.0525H28.5556V25.0525H17.4444V27.0525ZM29.449 26.5016L33.8935 17.6596L32.1065 16.7614L27.6621 25.6034L29.449 26.5016ZM33 16.2105H15.6667V18.2105H33V16.2105ZM18.4248 25.8554L16.647 17.0134L14.6863 17.4076L16.4641 26.2496L18.4248 25.8554ZM16.7392 25.3436L14.1914 27.8779L15.6019 29.2958L18.1497 26.7615L16.7392 25.3436ZM14.1914 27.8779C12.8511 29.2111 13.811 31.4735 15.6822 31.4735V29.4735C15.6421 29.4735 15.6255 29.4635 15.6173 29.4578C15.6047 29.4489 15.5894 29.4322 15.5789 29.407C15.5684 29.3817 15.5678 29.3602 15.57 29.3471C15.5714 29.3395 15.5748 29.3228 15.6019 29.2958L14.1914 27.8779ZM15.6822 31.4735H28.5556V29.4735H15.6822V31.4735ZM29.5556 30.4735C29.5556 29.81 30.0978 29.263 30.7778 29.263V27.263C29.0032 27.263 27.5556 28.6954 27.5556 30.4735H29.5556ZM30.7778 29.263C31.4578 29.263 32 29.81 32 30.4735H34C34 28.6954 32.5524 27.263 30.7778 27.263V29.263ZM32 30.4735C32 31.1371 31.4578 31.684 30.7778 31.684V33.684C32.5524 33.684 34 32.2516 34 30.4735H32ZM31.483 31.9751L29.2608 29.7646L27.8503 31.1825L30.0725 33.393L31.483 31.9751ZM20.5315 33.186C20.8068 32.7119 21.3711 32.4771 21.9088 32.6204L22.4239 30.6878C21.0185 30.3133 19.5324 30.9233 18.8018 32.1821L20.5315 33.186ZM21.9088 32.6204C22.4456 32.7635 22.8134 33.2451 22.8134 33.7893H24.8134C24.8134 32.3325 23.8301 31.0627 22.4239 30.6878L21.9088 32.6204ZM22.8134 33.7893C22.8134 34.3335 22.4456 34.8151 21.9088 34.9582L22.4239 36.8907C23.8301 36.5159 24.8134 35.2461 24.8134 33.7893H22.8134ZM21.9088 34.9582C21.3711 35.1015 20.8068 34.8667 20.5315 34.3926L18.8018 35.3965C19.5324 36.6553 21.0185 37.2653 22.4239 36.8907L21.9088 34.9582ZM20.6667 34.8945V32.684H18.6667V34.8945H20.6667Z" fill="#C7C7C7"/>
<circle cx="32" cy="16" r="6" fill="#ACD9B2"/>
<path fill-rule="evenodd" clip-rule="evenodd" d="M34.5228 14.2423C34.2877 14.032 33.9261 14.0514 33.7157 14.2872L31.1181 17.1905L29.9786 16.0355C29.7569 15.8107 29.3949 15.8083 29.1701 16.0302C28.9455 16.252 28.9429 16.614 29.1648 16.8388L30.7316 18.4266C30.8391 18.5356 30.9858 18.5966 31.1387 18.5966C31.1432 18.5966 31.1478 18.5966 31.1528 18.5966C31.3105 18.5928 31.4596 18.5238 31.5646 18.406L34.5678 15.0492C34.7782 14.8142 34.7579 14.4525 34.5228 14.2423Z" fill="white" stroke="white" stroke-width="0.8"/>
<defs>
<filter id="filter0_d" x="0" y="0" width="48" height="48" filterUnits="userSpaceOnUse" color-interpolation-filters="sRGB">
<feFlood flood-opacity="0" result="BackgroundImageFix"/>
<feColorMatrix in="SourceAlpha" type="matrix" values="0 0 0 0 0 0 0 0 0 0 0 0 0 0 0 0 0 0 127 0" result="hardAlpha"/>
<feOffset/>
<feGaussianBlur stdDeviation="2"/>
<feColorMatrix type="matrix" values="0 0 0 0 0 0 0 0 0 0 0 0 0 0 0 0 0 0 0.01 0"/>
<feBlend mode="normal" in2="BackgroundImageFix" result="effect1_dropShadow"/>
<feBlend mode="normal" in="SourceGraphic" in2="effect1_dropShadow" result="shape"/>
</filter>
</defs>
</svg>
