<svg width="24" height="24" viewBox="0 0 24 24" fill="none" xmlns="http://www.w3.org/2000/svg">
<path d="M22.6329 6.00814C22.4258 8.19854 21.8568 10.0677 21.3183 11.3646C20.8995 12.3731 20.0196 13.0839 18.9478 13.2937C17.8498 13.5087 16.1857 13.7243 13.9286 13.7243C12.3403 13.7243 10.9954 13.6175 9.92008 13.4794C8.02722 13.2361 6.69241 11.6879 6.38795 9.80391L5.49777 4.29576H21C21.9468 4.29576 22.722 5.06558 22.6329 6.00814Z" stroke="black" stroke-width="1.71429" stroke-linecap="round" stroke-linejoin="round"/>
<path d="M20.1428 18.0101H10.6316C8.94993 18.0101 7.51648 16.7903 7.24729 15.1303L5.60984 5.03266C5.34064 3.37263 3.90717 2.1529 2.22548 2.1529H1.28571" stroke="black" stroke-width="1.71429" stroke-linecap="round" stroke-linejoin="round"/>
<path d="M8.74888 21.847C9.80844 21.847 10.6674 20.9882 10.6674 19.9286C10.6674 18.869 9.80844 18.0101 8.74888 18.0101C7.6893 18.0101 6.83035 18.869 6.83035 19.9286C6.83035 20.9882 7.6893 21.847 8.74888 21.847Z" stroke="black" stroke-width="1.71429" stroke-linecap="round" stroke-linejoin="round"/>
<path d="M20.1429 21.847C21.2025 21.847 22.0613 20.9882 22.0613 19.9286C22.0613 18.869 21.2025 18.0101 20.1429 18.0101C19.0833 18.0101 18.2244 18.869 18.2244 19.9286C18.2244 20.9882 19.0833 21.847 20.1429 21.847Z" stroke="black" stroke-width="1.71429" stroke-linecap="round" stroke-linejoin="round"/>
</svg>
