<svg width="25" height="26" viewBox="0 0 25 26" fill="none" xmlns="http://www.w3.org/2000/svg">
<path id="Shape" d="M1 0C0.447715 0 0 0.447715 0 1C0 1.55228 0.447715 2 1 2V0ZM3.5 1L4.48639 0.835601C4.40603 0.353413 3.98884 0 3.5 0V1ZM3.01361 4.1644C3.1044 4.70917 3.61963 5.07719 4.1644 4.98639C4.70917 4.8956 5.07719 4.38037 4.98639 3.8356L3.01361 4.1644ZM6.05128 13C5.499 13 5.05128 13.4477 5.05128 14C5.05128 14.5523 5.499 15 6.05128 15V13ZM18.8718 14V15C19.2469 15 19.5904 14.7901 19.7616 14.4563L18.8718 14ZM24 4L24.8898 4.45632C25.0488 4.14631 25.035 3.77591 24.8533 3.47862C24.6717 3.18132 24.3484 3 24 3V4ZM4 3C3.44772 3 3 3.44772 3 4C3 4.55228 3.44772 5 4 5V3ZM5.01942 14.1961C5.12773 14.7377 5.65456 15.0889 6.19612 14.9806C6.73768 14.8723 7.08889 14.3454 6.98058 13.8039L5.01942 14.1961ZM4.98058 3.80388C4.87227 3.26232 4.34544 2.91111 3.80388 3.01942C3.26232 3.12773 2.91111 3.65456 3.01942 4.19612L4.98058 3.80388ZM6.99062 14.713C7.38439 14.3257 7.38968 13.6926 7.00243 13.2988C6.61518 12.9051 5.98204 12.8998 5.58827 13.287L6.99062 14.713ZM3.37491 16.8663L2.67373 16.1533H2.67373L3.37491 16.8663ZM19 20C19.5523 20 20 19.5523 20 19C20 18.4477 19.5523 18 19 18V20ZM19 18.5H18C18 18.7652 18.1054 19.0196 18.2929 19.2071L19 18.5ZM21.5 21L20.7929 21.7071C20.9804 21.8946 21.2348 22 21.5 22V21ZM8 21.2501L7.14966 20.7239C7.05183 20.882 7 21.0642 7 21.2501H8ZM8 23.7499H7C7 23.9358 7.05183 24.118 7.14966 24.2761L8 23.7499ZM1 2H3.5V0H1V2ZM2.51361 1.1644L3.01361 4.1644L4.98639 3.8356L4.48639 0.835601L2.51361 1.1644ZM6.05128 15H18.8718V13H6.05128V15ZM19.7616 14.4563L24.8898 4.45632L23.1102 3.54368L17.982 13.5437L19.7616 14.4563ZM24 3H4V5H24V3ZM6.98058 13.8039L4.98058 3.80388L3.01942 4.19612L5.01942 14.1961L6.98058 13.8039ZM5.58827 13.287L2.67373 16.1533L4.07609 17.5792L6.99062 14.713L5.58827 13.287ZM2.67373 16.1533C1.20969 17.5931 2.28159 20 4.27355 20V18C4.19512 18 4.14584 17.9786 4.11231 17.9554C4.07455 17.9292 4.04157 17.8895 4.02086 17.8403C4.00015 17.7911 3.99633 17.7437 4.00306 17.7055C4.00881 17.6728 4.02472 17.6298 4.07609 17.5792L2.67373 16.1533ZM4.27355 20H19V18H4.27355V20ZM20 18.5C20 17.6716 20.6716 17 21.5 17V15C19.567 15 18 16.567 18 18.5H20ZM21.5 17C22.3284 17 23 17.6716 23 18.5H25C25 16.567 23.433 15 21.5 15V17ZM23 18.5C23 19.3284 22.3284 20 21.5 20V22C23.433 22 25 20.433 25 18.5H23ZM22.2071 20.2929L19.7071 17.7929L18.2929 19.2071L20.7929 21.7071L22.2071 20.2929ZM8.85034 21.7764C9.21311 21.1902 9.99445 20.8613 10.7715 21.0556L11.2565 19.1153C9.69071 18.7238 7.99964 19.3504 7.14966 20.7239L8.85034 21.7764ZM10.7715 21.0556C11.5401 21.2477 12 21.8697 12 22.5H14C14 20.8675 12.8308 19.5088 11.2565 19.1153L10.7715 21.0556ZM12 22.5C12 23.1303 11.5401 23.7523 10.7715 23.9444L11.2565 25.8847C12.8308 25.4912 14 24.1325 14 22.5H12ZM10.7715 23.9444C9.99445 24.1387 9.21311 23.8098 8.85034 23.2236L7.14966 24.2761C7.99964 25.6496 9.69071 26.2762 11.2565 25.8847L10.7715 23.9444ZM9 23.7499V21.2501H7V23.7499H9Z" fill="white"/>
</svg>
