<svg width="16" height="16" viewBox="0 0 16 16" fill="none" xmlns="http://www.w3.org/2000/svg">
<path fill-rule="evenodd" clip-rule="evenodd" d="M3.69229 8.74291V15.3953C3.69229 15.7293 3.41685 16 3.07686 16H0.615432C0.275445 16 0 15.7293 0 15.3953V3.30009C0 3.04958 0.157144 2.82504 0.395223 2.73549C0.395223 2.73549 5.74875 0.719178 7.33925 0.120177C7.7646 -0.0400591 8.23529 -0.0400591 8.66065 0.120177C10.2511 0.719178 15.6048 2.73549 15.6048 2.73549C15.9219 2.85494 16.0807 3.20488 15.9591 3.5165C15.8376 3.82826 15.4815 3.98429 15.1644 3.86484C15.1644 3.86484 9.81072 1.84853 8.22023 1.24953C8.07845 1.19611 7.9216 1.19611 7.77981 1.24953L1.23072 3.71607V14.7905H2.46158V5.71917C2.46158 5.3852 2.73702 5.11436 3.07686 5.11436H12.923C13.2629 5.11436 13.5385 5.3852 13.5385 5.71917V14.7905H14.7692V5.71917C14.7692 5.38534 15.0449 5.11436 15.3846 5.11436C15.7242 5.11436 15.9999 5.38534 15.9999 5.71917V15.3953C15.9999 15.7293 15.7244 16 15.3846 16H12.923C12.5832 16 12.3076 15.7293 12.3076 15.3953V8.74291H3.69229ZM12.3076 7.53344V6.32397H3.69229V7.53344H12.3076Z" fill="black"/>
<path fill-rule="evenodd" clip-rule="evenodd" d="M6.59635 14.9C6.77906 14.9 6.96918 14.8798 7.16672 14.8393C7.36425 14.7988 7.54943 14.7238 7.72227 14.6143C7.89511 14.5048 8.03462 14.35 8.14079 14.15C8.24696 13.95 8.30005 13.6929 8.30005 13.3786C8.30005 13.0929 8.23955 12.8583 8.11857 12.675C7.99758 12.4917 7.84449 12.3488 7.65931 12.2464C7.61301 12.2208 7.56633 12.1972 7.51926 12.1754L7.40622 12.1286L7.45849 12.104C7.59456 12.0336 7.7065 11.9463 7.79429 11.8421L7.8556 11.7607C7.96918 11.5917 8.02597 11.3952 8.02597 11.1714C8.02597 10.7524 7.90993 10.4357 7.67783 10.2214C7.44573 10.0071 7.09264 9.9 6.61857 9.9H4.7519C4.62351 9.9 4.5161 9.94167 4.42968 10.025C4.34326 10.1083 4.30005 10.2119 4.30005 10.3357V14.4643C4.30005 14.5881 4.34326 14.6917 4.42968 14.775C4.5161 14.8583 4.62351 14.9 4.7519 14.9H6.59635ZM5.26301 10.7429H6.48523C6.65807 10.7429 6.79758 10.7893 6.90375 10.8821C7.00993 10.975 7.06301 11.1238 7.06301 11.3286C7.06301 11.5 7.00622 11.631 6.89264 11.7214C6.77906 11.8119 6.65067 11.8571 6.50746 11.8571H5.26301V10.7429ZM6.54449 12.7H5.26301V14.0786H6.59635C6.82351 14.0786 7.00375 14.0202 7.13709 13.9036C7.27042 13.7869 7.33709 13.6119 7.33709 13.3786C7.33709 13.1643 7.29264 13.0095 7.20375 12.9143C7.11486 12.819 7.00869 12.7595 6.88523 12.7357C6.76178 12.7119 6.6482 12.7 6.54449 12.7Z" fill="#ACD9B2"/>
<path d="M9.22287 14.9C9.33472 14.9 9.43204 14.8583 9.51481 14.775C9.59759 14.6917 9.63898 14.5881 9.63898 14.4643V12.8H11.0886C11.1817 12.8 11.2626 12.7741 11.3313 12.7223L11.3806 12.6786C11.4589 12.5976 11.498 12.5048 11.498 12.4C11.498 12.2762 11.4589 12.175 11.3806 12.0964C11.3023 12.0179 11.205 11.9786 11.0886 11.9786H9.63898V10.7214H11.3907C11.4837 10.7214 11.5646 10.6955 11.6333 10.6437L11.6826 10.6C11.7609 10.519 11.8 10.4262 11.8 10.3214C11.8 10.1976 11.7609 10.0964 11.6826 10.0179C11.6043 9.93929 11.507 9.9 11.3907 9.9H9.20944C9.09311 9.9 8.9958 9.94167 8.9175 10.025C8.8392 10.1083 8.80005 10.2119 8.80005 10.3357V14.4643C8.80005 14.5881 8.8392 14.6917 8.9175 14.775C8.9958 14.8583 9.09759 14.9 9.22287 14.9Z" fill="black"/>
</svg>
