<svg width="96" height="17" viewBox="0 0 96 17" fill="none" xmlns="http://www.w3.org/2000/svg">
<path fill-rule="evenodd" clip-rule="evenodd" d="M3.69229 9.74291V16.3953C3.69229 16.7293 3.41685 17 3.07686 17H0.615432C0.275445 17 0 16.7293 0 16.3953V4.30009C0 4.04958 0.157144 3.82504 0.395223 3.73549C0.395223 3.73549 5.74875 1.71918 7.33925 1.12018C7.7646 0.959941 8.23529 0.959941 8.66065 1.12018C10.2511 1.71918 15.6048 3.73549 15.6048 3.73549C15.9219 3.85494 16.0807 4.20488 15.9591 4.5165C15.8376 4.82826 15.4815 4.98429 15.1644 4.86484C15.1644 4.86484 9.81072 2.84853 8.22023 2.24953C8.07845 2.19611 7.9216 2.19611 7.77981 2.24953L1.23072 4.71607V15.7905H2.46158V6.71917C2.46158 6.3852 2.73702 6.11436 3.07686 6.11436H12.923C13.2629 6.11436 13.5385 6.3852 13.5385 6.71917V15.7905H14.7692V6.71917C14.7692 6.38534 15.0449 6.11436 15.3846 6.11436C15.7242 6.11436 15.9999 6.38534 15.9999 6.71917V16.3953C15.9999 16.7293 15.7244 17 15.3846 17H12.923C12.5832 17 12.3076 16.7293 12.3076 16.3953V9.74291H3.69229ZM12.3076 8.53344V7.32397H3.69229V8.53344H12.3076Z" fill="black"/>
<path fill-rule="evenodd" clip-rule="evenodd" d="M25.8052 15.6873C25.3363 15.7831 24.8849 15.831 24.4512 15.831H20.0727C19.7679 15.831 19.5129 15.7324 19.3077 15.5352C19.1026 15.338 19 15.093 19 14.8V5.03099C19 4.73803 19.1026 4.49296 19.3077 4.29577C19.5129 4.09859 19.7679 4 20.0727 4H24.5039C25.6293 4 26.4675 4.25352 27.0185 4.76056C27.5695 5.26761 27.845 6.0169 27.845 7.00845C27.845 7.53803 27.7102 8.00282 27.4405 8.40282L27.295 8.5953C27.0866 8.84194 26.8208 9.04851 26.4978 9.21502L26.3737 9.27324L26.6421 9.38415C26.7538 9.43556 26.8646 9.49155 26.9745 9.55211C27.4142 9.79437 27.7776 10.1324 28.0648 10.5662C28.352 11 28.4956 11.5549 28.4956 12.231C28.4956 12.9746 28.3696 13.5831 28.1175 14.0563C27.8655 14.5296 27.5343 14.8958 27.124 15.1549C26.7137 15.4141 26.2741 15.5915 25.8052 15.6873ZM24.1874 5.99437H21.286V8.63099H24.2402C24.5801 8.63099 24.8849 8.52394 25.1546 8.30986C25.4242 8.09577 25.559 7.78592 25.559 7.38028C25.559 6.89577 25.433 6.54366 25.1809 6.32394C24.9289 6.10423 24.5977 5.99437 24.1874 5.99437ZM21.286 10.6254H24.3281C24.5743 10.6254 24.8439 10.6535 25.137 10.7099C25.43 10.7662 25.6821 10.907 25.8931 11.1324C26.1041 11.3577 26.2096 11.7239 26.2096 12.231C26.2096 12.7831 26.0514 13.1972 25.7348 13.4732C25.4183 13.7493 24.9904 13.8873 24.4512 13.8873H21.286V10.6254ZM37.0153 15.4085C36.2943 15.8028 35.4884 16 34.5974 16C33.7065 16 32.9005 15.8028 32.1795 15.4085C31.4586 15.0141 30.8842 14.4648 30.4563 13.7606C30.0284 13.0563 29.8144 12.2423 29.8144 11.3183C29.8144 10.3944 30.0284 9.58028 30.4563 8.87606C30.8842 8.17183 31.4586 7.61972 32.1795 7.21972C32.9005 6.81972 33.7065 6.61972 34.5974 6.61972C35.4884 6.61972 36.2943 6.81972 37.0153 7.21972C37.7362 7.61972 38.3107 8.17183 38.7385 8.87606C39.1664 9.58028 39.3804 10.3944 39.3804 11.3183C39.3804 12.2423 39.1664 13.0563 38.7385 13.7606C38.3107 14.4648 37.7362 15.0141 37.0153 15.4085ZM34.5974 14.1408C34.105 14.1408 33.6566 14.0225 33.2522 13.7859C32.8478 13.5493 32.5254 13.2197 32.2851 12.7972C32.0447 12.3746 31.9246 11.8817 31.9246 11.3183C31.9246 10.7437 32.0447 10.2451 32.2851 9.82254C32.5254 9.4 32.8478 9.07042 33.2522 8.8338C33.6566 8.59718 34.105 8.47887 34.5974 8.47887C35.0898 8.47887 35.5382 8.59718 35.9426 8.8338C36.3471 9.07042 36.6694 9.4 36.9098 9.82254C37.1501 10.2451 37.2702 10.7437 37.2702 11.3183C37.2702 11.8817 37.1501 12.3746 36.9098 12.7972C36.6694 13.2197 36.3471 13.5493 35.9426 13.7859C35.5382 14.0225 35.0898 14.1408 34.5974 14.1408ZM45.7899 15.5268C45.4324 15.7296 45.0484 15.831 44.6381 15.831C44.3919 15.831 44.1194 15.8113 43.8205 15.7718C43.5215 15.7324 43.2402 15.6366 42.9764 15.4845C42.7126 15.3324 42.4928 15.0986 42.317 14.7831L42.2364 14.6155C42.1143 14.3197 42.0532 13.9418 42.0532 13.4817V8.8169H41.2443C40.963 8.8169 40.7285 8.72676 40.541 8.54648C40.3534 8.3662 40.2596 8.14084 40.2596 7.87042C40.2596 7.61127 40.3534 7.39437 40.541 7.21972L40.6591 7.12541C40.8242 7.01363 41.0192 6.95775 41.2443 6.95775H42.0532V5.87606C42.0532 5.5831 42.1558 5.33803 42.3609 5.14085C42.5661 4.94366 42.8211 4.84507 43.1259 4.84507C43.4307 4.84507 43.6798 4.94366 43.8732 5.14085L43.9777 5.2649C44.1015 5.43797 44.1633 5.64169 44.1633 5.87606V6.95775H45.4118C45.6932 6.95775 45.9277 7.04789 46.1152 7.22817C46.3028 7.40845 46.3966 7.6338 46.3966 7.90423C46.3966 8.16338 46.3028 8.38028 46.1152 8.55493L45.9971 8.64924C45.832 8.76101 45.6369 8.8169 45.4118 8.8169H44.1633V13.3972C44.1633 13.5549 44.1956 13.6845 44.2601 13.7859C44.3245 13.8873 44.4125 13.9606 44.5238 14.0056C44.6352 14.0507 44.7554 14.0732 44.8843 14.0732C45.025 14.0732 45.1539 14.0479 45.2712 13.9972C45.3884 13.9465 45.5232 13.9211 45.6756 13.9211C45.8397 13.9211 45.9892 13.9944 46.124 14.1408C46.2588 14.2873 46.3262 14.4901 46.3262 14.7493C46.3262 15.0648 46.1475 15.3239 45.7899 15.5268ZM52.1291 16C52.5746 16 52.9878 15.9296 53.3688 15.7887C53.7498 15.6479 54.081 15.4761 54.3623 15.2732C54.503 15.1718 54.629 15.0697 54.7404 14.9669L54.8913 14.8169L54.9018 14.97C54.9257 15.1343 54.9855 15.2814 55.0812 15.4112L55.1888 15.5352C55.3881 15.7324 55.6401 15.831 55.9449 15.831C56.2497 15.831 56.5018 15.7324 56.7011 15.5352C56.9004 15.338 57 15.093 57 14.8V7.6507C57 7.34648 56.9004 7.09859 56.7011 6.90704C56.5018 6.71549 56.2497 6.61972 55.9449 6.61972C55.6401 6.61972 55.3881 6.71831 55.1888 6.91549C54.9895 7.11268 54.8899 7.35775 54.8899 7.6507V7.67606L54.7668 7.56673L54.547 7.39718C54.2363 7.17183 53.87 6.98592 53.4479 6.83944C53.0259 6.69296 52.5629 6.61972 52.0588 6.61972C51.2733 6.61972 50.5582 6.81972 49.9135 7.21972C49.2687 7.61972 48.7558 8.17183 48.3748 8.87606C47.9938 9.58028 47.8033 10.3944 47.8033 11.3183C47.8033 12.231 47.9938 13.0394 48.3748 13.7437C48.7558 14.4479 49.2746 15 49.931 15.4C50.5875 15.8 51.3202 16 52.1291 16ZM51.0565 13.769C51.4433 14.0169 51.8888 14.1408 52.3929 14.1408C52.9087 14.1408 53.36 14.0169 53.7469 13.769C54.1337 13.5211 54.4356 13.1831 54.6525 12.7549C54.8694 12.3268 54.9778 11.8479 54.9778 11.3183C54.9778 10.7775 54.8694 10.293 54.6525 9.86479C54.4356 9.43662 54.1337 9.09859 53.7469 8.8507C53.36 8.60282 52.9087 8.47887 52.3929 8.47887C51.8888 8.47887 51.4433 8.60282 51.0565 8.8507C50.6696 9.09859 50.3677 9.43662 50.1509 9.86479C49.934 10.293 49.8255 10.7775 49.8255 11.3183C49.8255 11.8479 49.934 12.3268 50.1509 12.7549C50.3677 13.1831 50.6696 13.5211 51.0565 13.769Z" fill="#ACD9B2"/>
<path fill-rule="evenodd" clip-rule="evenodd" d="M60.8827 15.5352C60.6647 15.7324 60.4083 15.831 60.1137 15.831C59.7837 15.831 59.5156 15.7324 59.3094 15.5352C59.1031 15.338 59 15.093 59 14.8V5.03099C59 4.73803 59.1031 4.49296 59.3094 4.29577C59.5156 4.09859 59.7719 4 60.0784 4H65.8237C66.1301 4 66.3864 4.09296 66.5927 4.27887C66.7989 4.46479 66.9021 4.70423 66.9021 4.99718C66.9021 5.24507 66.7989 5.46479 66.5927 5.65634L66.4629 5.75977C66.2819 5.88237 66.0688 5.94366 65.8237 5.94366H61.2097V8.91831H65.0282C65.3346 8.91831 65.5909 9.01127 65.7972 9.19718C66.0034 9.3831 66.1065 9.62254 66.1065 9.91549C66.1065 10.1634 66.0034 10.3831 65.7972 10.5746L65.6674 10.6781C65.4864 10.8007 65.2733 10.862 65.0282 10.862H61.2097V14.8C61.2097 15.093 61.1007 15.338 60.8827 15.5352ZM75.467 15.4085C74.7422 15.8028 73.932 16 73.0363 16C72.1406 16 71.3304 15.8028 70.6056 15.4085C69.8808 15.0141 69.3033 14.4648 68.8731 13.7606C68.443 13.0563 68.2279 12.2423 68.2279 11.3183C68.2279 10.3944 68.443 9.58028 68.8731 8.87606C69.3033 8.17183 69.8808 7.61972 70.6056 7.21972C71.3304 6.81972 72.1406 6.61972 73.0363 6.61972C73.932 6.61972 74.7422 6.81972 75.467 7.21972C76.1918 7.61972 76.7693 8.17183 77.1995 8.87606C77.6296 9.58028 77.8447 10.3944 77.8447 11.3183C77.8447 12.2423 77.6296 13.0563 77.1995 13.7606C76.7693 14.4648 76.1918 15.0141 75.467 15.4085ZM73.0363 14.1408C72.5413 14.1408 72.0905 14.0225 71.6839 13.7859C71.2774 13.5493 70.9533 13.2197 70.7117 12.7972C70.4701 12.3746 70.3493 11.8817 70.3493 11.3183C70.3493 10.7437 70.4701 10.2451 70.7117 9.82254C70.9533 9.4 71.2774 9.07042 71.6839 8.8338C72.0905 8.59718 72.5413 8.47887 73.0363 8.47887C73.5313 8.47887 73.9821 8.59718 74.3887 8.8338C74.7953 9.07042 75.1194 9.4 75.361 9.82254C75.6026 10.2451 75.7234 10.7437 75.7234 11.3183C75.7234 11.8817 75.6026 12.3746 75.361 12.7972C75.1194 13.2197 74.7953 13.5493 74.3887 13.7859C73.9821 14.0225 73.5313 14.1408 73.0363 14.1408ZM81.4333 15.5352C81.233 15.7324 80.9796 15.831 80.6732 15.831C80.3668 15.831 80.1134 15.7324 79.913 15.5352C79.7127 15.338 79.6125 15.093 79.6125 14.8V7.81972C79.6125 7.52676 79.7127 7.28169 79.913 7.08451C80.1134 6.88732 80.3668 6.78873 80.6732 6.78873C80.9796 6.78873 81.233 6.88732 81.4333 7.08451L81.5415 7.20856C81.6698 7.38163 81.7339 7.58535 81.7339 7.81972V8.04789L81.8333 7.89366C81.9173 7.77394 82.0108 7.66197 82.114 7.55775C82.3202 7.3493 82.553 7.17465 82.8122 7.0338C83.0715 6.89296 83.3485 6.78873 83.6431 6.72113C83.9377 6.65352 84.2324 6.61972 84.527 6.61972C84.8806 6.61972 85.1781 6.71549 85.4197 6.90704C85.6613 7.09859 85.7821 7.32394 85.7821 7.5831C85.7821 7.95493 85.682 8.22254 85.4816 8.38592C85.2813 8.5493 85.0632 8.63099 84.8275 8.63099C84.6036 8.63099 84.4003 8.59155 84.2176 8.51268C84.035 8.4338 83.8258 8.39437 83.5901 8.39437C83.3779 8.39437 83.1628 8.44225 82.9448 8.53803C82.7268 8.6338 82.5264 8.7831 82.3438 8.98592C82.1611 9.18873 82.0138 9.43944 81.9018 9.73803C81.7899 10.0366 81.7339 10.3887 81.7339 10.7944V14.8C81.7339 15.093 81.6337 15.338 81.4333 15.5352ZM91.1032 16C91.551 16 91.9665 15.9296 92.3495 15.7887C92.7325 15.6479 93.0655 15.4761 93.3483 15.2732C93.4897 15.1718 93.6164 15.0697 93.7284 14.9669L93.8801 14.8169L93.8907 14.97C93.9147 15.1343 93.9748 15.2814 94.071 15.4112L94.1792 15.5352C94.3795 15.7324 94.6329 15.831 94.9393 15.831C95.2457 15.831 95.4991 15.7324 95.6995 15.5352C95.8998 15.338 96 15.093 96 14.8V7.6507C96 7.34648 95.8998 7.09859 95.6995 6.90704C95.4991 6.71549 95.2457 6.61972 94.9393 6.61972C94.6329 6.61972 94.3795 6.71831 94.1792 6.91549C93.9788 7.11268 93.8786 7.35775 93.8786 7.6507V7.67606L93.7549 7.56673L93.5339 7.39718C93.2216 7.17183 92.8533 6.98592 92.4291 6.83944C92.0048 6.69296 91.5393 6.61972 91.0325 6.61972C90.2429 6.61972 89.524 6.81972 88.8758 7.21972C88.2276 7.61972 87.712 8.17183 87.329 8.87606C86.9459 9.58028 86.7544 10.3944 86.7544 11.3183C86.7544 12.231 86.9459 13.0394 87.329 13.7437C87.712 14.4479 88.2335 15 88.8935 15.4C89.5534 15.8 90.29 16 91.1032 16ZM90.0248 13.769C90.4138 14.0169 90.8616 14.1408 91.3684 14.1408C91.8869 14.1408 92.3407 14.0169 92.7296 13.769C93.1185 13.5211 93.422 13.1831 93.64 12.7549C93.858 12.3268 93.967 11.8479 93.967 11.3183C93.967 10.7775 93.858 10.293 93.64 9.86479C93.422 9.43662 93.1185 9.09859 92.7296 8.8507C92.3407 8.60282 91.8869 8.47887 91.3684 8.47887C90.8616 8.47887 90.4138 8.60282 90.0248 8.8507C89.6359 9.09859 89.3325 9.43662 89.1144 9.86479C88.8964 10.293 88.7874 10.7775 88.7874 11.3183C88.7874 11.8479 88.8964 12.3268 89.1144 12.7549C89.3325 13.1831 89.6359 13.5211 90.0248 13.769Z" fill="black"/>
</svg>
