<svg width="16" height="16" viewBox="0 0 16 16" fill="none" xmlns="http://www.w3.org/2000/svg">
<path fill-rule="evenodd" clip-rule="evenodd" d="M3.69229 8.74291V15.3953C3.69229 15.7293 3.41685 16 3.07686 16H0.615432C0.275445 16 0 15.7293 0 15.3953V3.30009C0 3.04958 0.157144 2.82504 0.395223 2.73549C0.395223 2.73549 5.74875 0.719178 7.33925 0.120177C7.7646 -0.0400591 8.23529 -0.0400591 8.66065 0.120177C10.2511 0.719178 15.6048 2.73549 15.6048 2.73549C15.9219 2.85494 16.0807 3.20488 15.9591 3.5165C15.8376 3.82826 15.4815 3.98429 15.1644 3.86484C15.1644 3.86484 9.81072 1.84853 8.22023 1.24953C8.07845 1.19611 7.9216 1.19611 7.77981 1.24953L1.23072 3.71607V14.7905H2.46158V5.71917C2.46158 5.3852 2.73702 5.11436 3.07686 5.11436H12.923C13.2629 5.11436 13.5385 5.3852 13.5385 5.71917V14.7905H14.7692V5.71917C14.7692 5.38534 15.0449 5.11436 15.3846 5.11436C15.7242 5.11436 15.9999 5.38534 15.9999 5.71917V15.3953C15.9999 15.7293 15.7244 16 15.3846 16H12.923C12.5832 16 12.3076 15.7293 12.3076 15.3953V8.74291H3.69229ZM12.3076 7.53344V6.32397H3.69229V7.53344H12.3076Z" fill="black"/>
<path d="M6.27482 14.8C6.36998 14.8 6.45375 14.7585 6.52615 14.6755C6.59855 14.5926 6.63475 14.4894 6.63475 14.3661V12.6326L7.93174 10.5041C7.94829 10.4757 7.96162 10.4467 7.97173 10.4172L7.98449 10.3725C7.99483 10.3275 8 10.2836 8 10.241C8 10.1129 7.96173 10.0074 7.8852 9.92447C7.80866 9.84149 7.72281 9.8 7.62766 9.8C7.50768 9.8 7.40426 9.87112 7.31738 10.0134L6.29427 11.7289L5.20124 9.99915C5.12677 9.88535 5.04167 9.82032 4.94592 9.80406L4.89716 9.8C4.80615 9.8 4.7172 9.8403 4.63032 9.92091C4.54344 10.0015 4.5 10.1058 4.5 10.2339C4.5 10.2813 4.50827 10.3334 4.52482 10.3903C4.54137 10.4472 4.57033 10.5065 4.6117 10.5681L5.90248 12.5345V14.3661C5.90248 14.4689 5.92762 14.5576 5.9779 14.6324L6.01108 14.6755C6.08348 14.7585 6.17139 14.8 6.27482 14.8Z" fill="#ACD9B2"/>
<path d="M9.76015 14.8C10.0671 14.8 10.3525 14.7421 10.6165 14.6264C10.8806 14.5106 11.0938 14.344 11.2563 14.1264C11.4188 13.9088 11.5 13.6495 11.5 13.3486C11.5 13.1125 11.4662 12.9123 11.3985 12.7479C11.3308 12.5836 11.2292 12.447 11.0938 12.3382C10.9584 12.2294 10.788 12.1403 10.5827 12.0708C10.3773 12.0014 10.1393 11.9412 9.86847 11.8903C9.66086 11.8486 9.48259 11.8012 9.33366 11.7479C9.18472 11.6947 9.07076 11.6229 8.99178 11.5326C8.9128 11.4424 8.87331 11.3278 8.87331 11.1889C8.87331 11.0731 8.90716 10.9713 8.97485 10.8833C9.04255 10.7954 9.14297 10.7259 9.27611 10.675C9.40925 10.6241 9.57286 10.5986 9.76692 10.5986C9.88427 10.5986 10.0106 10.6183 10.146 10.6576C10.2814 10.697 10.4101 10.7456 10.5319 10.8035C10.6538 10.8613 10.7508 10.9227 10.823 10.9875C10.8772 11.0292 10.9381 11.05 11.0058 11.05C11.1096 11.05 11.1999 11.0083 11.2766 10.925C11.3533 10.8417 11.3917 10.7491 11.3917 10.6472C11.3917 10.5083 11.3262 10.3856 11.1954 10.2792C11.0374 10.1403 10.8332 10.0257 10.5827 9.93542C10.3322 9.84514 10.0603 9.8 9.76692 9.8C9.45551 9.8 9.17118 9.85556 8.91393 9.96667C8.65667 10.0778 8.45245 10.2398 8.30126 10.4528C8.15006 10.6657 8.07447 10.9227 8.07447 11.2236C8.07447 11.4227 8.10606 11.6021 8.16925 11.7618C8.23243 11.9215 8.32608 12.0604 8.45019 12.1785C8.57431 12.2965 8.72888 12.3938 8.91393 12.4701C9.09897 12.5465 9.31335 12.6032 9.55706 12.6403C9.81431 12.6773 10.0264 12.7294 10.1934 12.7965C10.3604 12.8637 10.4845 12.9458 10.5658 13.0431C10.647 13.1403 10.6876 13.2583 10.6876 13.3972C10.6876 13.513 10.6447 13.616 10.559 13.7063C10.4732 13.7965 10.3604 13.8683 10.2205 13.9215C10.0806 13.9748 9.92714 14.0014 9.76015 14.0014C9.51193 14.0014 9.30319 13.9644 9.13395 13.8903C8.9647 13.8162 8.79433 13.7074 8.62282 13.5639C8.55513 13.5083 8.4784 13.4806 8.39265 13.4806C8.27982 13.4806 8.18617 13.5211 8.1117 13.6021C8.03723 13.6831 8 13.7769 8 13.8833C8 13.9481 8.0158 14.013 8.04739 14.0778C8.07898 14.1426 8.12411 14.2005 8.18279 14.2514C8.41296 14.4551 8.65442 14.5975 8.90716 14.6785C9.1599 14.7595 9.44423 14.8 9.76015 14.8Z" fill="black"/>
</svg>
