<svg width="16" height="16" viewBox="0 0 16 16" fill="none" xmlns="http://www.w3.org/2000/svg">
<g clip-path="url(#clip0_401_7)">
<path d="M16 8C16 12.4183 12.4183 16 8 16C3.58172 16 0 12.4183 0 8C0 3.58172 3.58172 0 8 0C12.4183 0 16 3.58172 16 8Z" fill="black"/>
<path fill-rule="evenodd" clip-rule="evenodd" d="M5.30768 8.46432V12.6221C5.30768 12.8308 5.13553 13 4.92304 13H3.38465C3.17215 13 3 12.8308 3 12.6221V5.06256C3 4.90599 3.09822 4.76565 3.24701 4.70968C3.24701 4.70968 6.59297 3.44949 7.58703 3.07511C7.85288 2.97496 8.14706 2.97496 8.41291 3.07511C9.40694 3.44949 12.753 4.70968 12.753 4.70968C12.9512 4.78434 13.0504 5.00305 12.9744 5.19781C12.8985 5.39266 12.6759 5.49018 12.4778 5.41553C12.4778 5.41553 9.1317 4.15533 8.13765 3.78096C8.04903 3.74757 7.951 3.74757 7.86238 3.78096L3.7692 5.32254V12.2441H4.53849V6.57448C4.53849 6.36575 4.71064 6.19647 4.92304 6.19647H11.0769C11.2893 6.19647 11.4616 6.36575 11.4616 6.57448V12.2441H12.2308V6.57448C12.2308 6.36584 12.4031 6.19647 12.6154 6.19647C12.8276 6.19647 12.9999 6.36584 12.9999 6.57448V12.6221C12.9999 12.8308 12.8278 13 12.6154 13H11.0769C10.8645 13 10.6923 12.8308 10.6923 12.6221V8.46432H5.30768ZM10.6923 7.7084V6.95248H5.30768V7.7084H10.6923Z" fill="#ACD9B2"/>
<path d="M7.01418 12C7.06856 12 7.11643 11.9751 7.1578 11.9253C7.19917 11.8756 7.21986 11.8136 7.21986 11.7397V10.6996L7.96099 9.42246C7.97045 9.40542 7.97807 9.38802 7.98385 9.37032L7.99114 9.3435C7.99705 9.3165 8 9.29016 8 9.2646C8 9.18774 7.97813 9.12444 7.9344 9.07468C7.89066 9.02489 7.84161 9 7.78723 9C7.71867 9 7.65958 9.04267 7.60993 9.12804L7.0253 10.1573L6.40071 9.11949C6.35815 9.05121 6.30953 9.01219 6.25481 9.00244L6.22695 9C6.17494 9 6.12411 9.02418 6.07447 9.07255C6.02482 9.1209 6 9.18348 6 9.26034C6 9.28878 6.00473 9.32004 6.01418 9.35418C6.02364 9.38832 6.04019 9.4239 6.06383 9.46086L6.80142 10.6407V11.7397C6.80142 11.8013 6.81578 11.8546 6.84451 11.8994L6.86347 11.9253C6.90485 11.9751 6.95508 12 7.01418 12Z" fill="white"/>
<path d="M9.0058 12C9.1812 12 9.34429 11.9653 9.49514 11.8958C9.64606 11.8264 9.76789 11.7264 9.86074 11.5958C9.9536 11.4653 10 11.3097 10 11.1292C10 10.9875 9.98069 10.8674 9.942 10.7687C9.90331 10.6702 9.84526 10.5882 9.76789 10.5229C9.69051 10.4576 9.59314 10.4042 9.47583 10.3625C9.35846 10.3208 9.22246 10.2847 9.0677 10.2542C8.94906 10.2292 8.84719 10.2007 8.76209 10.1687C8.67698 10.1368 8.61186 10.0937 8.56673 10.0396C8.5216 9.98544 8.49903 9.91668 8.49903 9.83334C8.49903 9.76386 8.51838 9.70278 8.55706 9.64998C8.59574 9.59724 8.65313 9.55554 8.72921 9.525C8.80529 9.49446 8.89878 9.47916 9.00967 9.47916C9.07673 9.47916 9.14891 9.49098 9.22629 9.51456C9.30366 9.5382 9.3772 9.56736 9.4468 9.6021C9.51646 9.63678 9.57189 9.67362 9.61314 9.7125C9.64411 9.73752 9.67891 9.75 9.7176 9.75C9.77691 9.75 9.82851 9.72498 9.87234 9.675C9.91617 9.62502 9.93811 9.56946 9.93811 9.50832C9.93811 9.42498 9.90069 9.35136 9.82594 9.28752C9.73566 9.20418 9.61897 9.13542 9.47583 9.08125C9.33269 9.02708 9.17731 9 9.00967 9C8.83172 9 8.66925 9.03334 8.52225 9.1C8.37524 9.16668 8.25854 9.26388 8.17215 9.39168C8.08575 9.51942 8.04255 9.67362 8.04255 9.85416C8.04255 9.97362 8.06061 10.0813 8.09671 10.1771C8.13282 10.2729 8.18633 10.3562 8.25725 10.4271C8.32818 10.4979 8.4165 10.5563 8.52225 10.6021C8.62798 10.6479 8.75049 10.6819 8.88975 10.7042C9.03675 10.7264 9.15794 10.7576 9.25337 10.7979C9.3488 10.8382 9.41971 10.8875 9.46617 10.9459C9.51257 11.0042 9.53577 11.075 9.53577 11.1583C9.53577 11.2278 9.51126 11.2896 9.46229 11.3438C9.41326 11.3979 9.3488 11.441 9.26886 11.4729C9.18891 11.5049 9.10122 11.5208 9.0058 11.5208C8.86396 11.5208 8.74468 11.4986 8.64797 11.4542C8.55126 11.4097 8.4539 11.3444 8.3559 11.2583C8.31722 11.225 8.27337 11.2084 8.22437 11.2084C8.1599 11.2084 8.10638 11.2327 8.06383 11.2813C8.02127 11.3299 8 11.3861 8 11.45C8 11.4889 8.00903 11.5278 8.02708 11.5667C8.04513 11.6056 8.07092 11.6403 8.10445 11.6708C8.23598 11.7931 8.37395 11.8785 8.51838 11.9271C8.6628 11.9757 8.82527 12 9.0058 12Z" fill="#ACD9B2"/>
</g>
<defs>
<clipPath id="clip0_401_7">
<rect width="16" height="16" fill="white"/>
</clipPath>
</defs>
</svg>
