<?xml version="1.0" encoding="utf-8"?>
<!-- Generator: Adobe Illustrator 26.1.0, SVG Export Plug-In . SVG Version: 6.00 Build 0)  -->
<svg version="1.1" id="Layer_1" xmlns="http://www.w3.org/2000/svg" xmlns:xlink="http://www.w3.org/1999/xlink" x="0px" y="0px"
	 viewBox="0 0 16 16" style="enable-background:new 0 0 16 16;" xml:space="preserve">
<style type="text/css">
	.st0{fill-rule:evenodd;clip-rule:evenodd;fill:#ACD9B2;}
	.st1{fill:#FFFFFF;}
</style>
<path class="st0" d="M3.7,8.7v6.7c0,0.3-0.3,0.6-0.6,0.6H0.6C0.3,16,0,15.7,0,15.4V3.3C0,3,0.2,2.8,0.4,2.7c0,0,5.4-2,6.9-2.6
	C7.8,0,8.2,0,8.7,0.1c1.6,0.6,6.9,2.6,6.9,2.6c0.3,0.1,0.5,0.5,0.4,0.8c-0.1,0.3-0.5,0.5-0.8,0.3c0,0-5.4-2-6.9-2.6
	c-0.1-0.1-0.3-0.1-0.4,0L1.2,3.7v11.1h1.2V5.7c0-0.3,0.3-0.6,0.6-0.6h9.8c0.3,0,0.6,0.3,0.6,0.6v9.1h1.2V5.7c0-0.3,0.3-0.6,0.6-0.6
	c0.3,0,0.6,0.3,0.6,0.6v9.7c0,0.3-0.3,0.6-0.6,0.6h-2.5c-0.3,0-0.6-0.3-0.6-0.6V8.7H3.7z M12.3,7.5V6.3H3.7v1.2H12.3z"/>
<path class="st1" d="M6.3,14.8c0.1,0,0.2,0,0.3-0.1c0.1-0.1,0.1-0.2,0.1-0.3v-1.7l1.3-2.1c0,0,0-0.1,0-0.1l0,0c0,0,0-0.1,0-0.1
	c0-0.1,0-0.2-0.1-0.3C7.8,9.8,7.7,9.8,7.6,9.8c-0.1,0-0.2,0.1-0.3,0.2l-1,1.7L5.2,10C5.1,9.9,5,9.8,4.9,9.8l0,0
	c-0.1,0-0.2,0-0.3,0.1c-0.1,0.1-0.1,0.2-0.1,0.3c0,0,0,0.1,0,0.2s0,0.1,0.1,0.2l1.3,2v1.8c0,0.1,0,0.2,0.1,0.3l0,0
	C6.1,14.8,6.2,14.8,6.3,14.8z"/>
<path class="st1" d="M9.8,14.8c0.3,0,0.6-0.1,0.9-0.2c0.3-0.1,0.5-0.3,0.6-0.5s0.2-0.5,0.2-0.8c0-0.2,0-0.4-0.1-0.6
	c-0.1-0.2-0.2-0.3-0.3-0.4c-0.1-0.1-0.3-0.2-0.5-0.3c-0.2-0.1-0.4-0.1-0.7-0.2c-0.2,0-0.4-0.1-0.5-0.1c-0.1-0.1-0.3-0.1-0.3-0.2
	c-0.1-0.1-0.1-0.2-0.1-0.3c0-0.1,0-0.2,0.1-0.3c0.1-0.1,0.2-0.2,0.3-0.2c0.1-0.1,0.3-0.1,0.5-0.1c0.1,0,0.2,0,0.4,0.1
	c0.1,0,0.3,0.1,0.4,0.1c0.1,0.1,0.2,0.1,0.3,0.2c0.1,0,0.1,0.1,0.2,0.1c0.1,0,0.2,0,0.3-0.1c0.1-0.1,0.1-0.2,0.1-0.3
	c0-0.1-0.1-0.3-0.2-0.4c-0.2-0.1-0.4-0.3-0.6-0.3c-0.3-0.1-0.5-0.1-0.8-0.1c-0.3,0-0.6,0.1-0.9,0.2c-0.3,0.1-0.5,0.3-0.6,0.5
	c-0.2,0.2-0.2,0.5-0.2,0.8c0,0.2,0,0.4,0.1,0.5c0.1,0.2,0.2,0.3,0.3,0.4c0.1,0.1,0.3,0.2,0.5,0.3c0.2,0.1,0.4,0.1,0.6,0.2
	c0.3,0,0.5,0.1,0.6,0.2c0.2,0.1,0.3,0.1,0.4,0.2c0.1,0.1,0.1,0.2,0.1,0.4c0,0.1,0,0.2-0.1,0.3c-0.1,0.1-0.2,0.2-0.3,0.2
	C10.1,14,9.9,14,9.8,14c-0.2,0-0.5,0-0.6-0.1c-0.2-0.1-0.3-0.2-0.5-0.3c-0.1-0.1-0.1-0.1-0.2-0.1c-0.1,0-0.2,0-0.3,0.1
	C8,13.7,8,13.8,8,13.9c0,0.1,0,0.1,0,0.2c0,0.1,0.1,0.1,0.1,0.2c0.2,0.2,0.5,0.3,0.7,0.4C9.2,14.8,9.4,14.8,9.8,14.8z"/>
</svg>
