<svg width="87" height="24" viewBox="0 0 87 24" fill="none" xmlns="http://www.w3.org/2000/svg">
<g clip-path="url(#clip0_3_36)">
<path d="M12 22.7143C17.9174 22.7143 22.7143 17.9174 22.7143 12C22.7143 6.08266 17.9174 1.28571 12 1.28571C6.08267 1.28571 1.28572 6.08266 1.28572 12C1.28572 17.9174 6.08267 22.7143 12 22.7143Z" stroke="black" stroke-width="1.71429" stroke-linecap="round" stroke-linejoin="round"/>
<path d="M6.56039 13.6482C7.38457 16.6152 10.6813 18.4284 13.6483 17.6042C15.4615 16.9449 16.945 15.4613 17.4396 13.6482" stroke="black" stroke-width="1.71429" stroke-linecap="round" stroke-linejoin="round"/>
<path d="M7.63184 8.74387V9.94387" stroke="black" stroke-width="1.71429" stroke-linecap="round"/>
<path d="M16.3682 8.74387V9.94387" stroke="black" stroke-width="1.71429" stroke-linecap="round"/>
</g>
<path d="M24.3076 7.24072H26.0068L29.0977 12.4116L32.1885 7.24072H33.895L29.8301 13.6641V18H28.3726V13.6641L24.3076 7.24072ZM34.8691 15.9126C34.8691 16.2935 35.0083 16.5938 35.2866 16.8135C35.5649 17.0332 35.8945 17.1431 36.2754 17.1431C36.7393 17.1431 37.1885 17.0356 37.623 16.8208C38.3555 16.4644 38.7217 15.8809 38.7217 15.0703V14.0083C38.5605 14.1108 38.353 14.1963 38.0991 14.2646C37.8452 14.333 37.5962 14.3818 37.3521 14.4111L36.5537 14.5137C36.0752 14.5771 35.7163 14.6772 35.4771 14.814C35.0718 15.0435 34.8691 15.4097 34.8691 15.9126ZM38.0625 13.2466C38.3652 13.2075 38.5679 13.0806 38.6704 12.8657C38.729 12.7485 38.7583 12.5801 38.7583 12.3604C38.7583 11.9111 38.5972 11.5864 38.2749 11.3862C37.9575 11.1812 37.501 11.0786 36.9053 11.0786C36.2168 11.0786 35.7285 11.2642 35.4404 11.6353C35.2793 11.8403 35.1743 12.1455 35.1255 12.5508H33.895C33.9194 11.584 34.2319 10.9126 34.8325 10.5366C35.438 10.1558 36.1387 9.96533 36.9346 9.96533C37.8574 9.96533 38.6069 10.1411 39.1831 10.4927C39.7544 10.8442 40.04 11.3911 40.04 12.1333V16.6523C40.04 16.7891 40.0669 16.8989 40.1206 16.9819C40.1792 17.0649 40.2988 17.1064 40.4795 17.1064C40.5381 17.1064 40.604 17.104 40.6772 17.0991C40.7505 17.0894 40.8286 17.0771 40.9116 17.0625V18.0366C40.7065 18.0952 40.5503 18.1318 40.4429 18.1465C40.3354 18.1611 40.189 18.1685 40.0034 18.1685C39.5493 18.1685 39.2197 18.0073 39.0146 17.6851C38.9072 17.5142 38.8315 17.2725 38.7876 16.96C38.519 17.3115 38.1333 17.6167 37.6304 17.8755C37.1274 18.1343 36.5732 18.2637 35.9678 18.2637C35.2402 18.2637 34.6445 18.0439 34.1807 17.6045C33.7217 17.1602 33.4922 16.606 33.4922 15.9419C33.4922 15.2144 33.7192 14.6504 34.1733 14.25C34.6274 13.8496 35.2231 13.603 35.9604 13.5103L38.0625 13.2466ZM42.2446 10.1558H43.4971V11.5107C43.5996 11.2471 43.8511 10.9272 44.2515 10.5513C44.6519 10.1704 45.1133 9.97998 45.6357 9.97998C45.6602 9.97998 45.7017 9.98242 45.7603 9.9873C45.8188 9.99219 45.9189 10.002 46.0605 10.0166V11.4082C45.9824 11.3936 45.9092 11.3838 45.8408 11.3789C45.7773 11.374 45.7065 11.3716 45.6284 11.3716C44.9644 11.3716 44.4541 11.5864 44.0977 12.0161C43.7412 12.4409 43.563 12.9316 43.563 13.4883V18H42.2446V10.1558ZM48.0381 14.1694C48.0381 15.0093 48.2163 15.7124 48.5728 16.2788C48.9292 16.8452 49.5005 17.1284 50.2866 17.1284C50.897 17.1284 51.3975 16.8672 51.7881 16.3447C52.1836 15.8174 52.3813 15.063 52.3813 14.0815C52.3813 13.0903 52.1787 12.3579 51.7734 11.8843C51.3682 11.4058 50.8677 11.1665 50.272 11.1665C49.6079 11.1665 49.0684 11.4204 48.6533 11.9282C48.2432 12.436 48.0381 13.1831 48.0381 14.1694ZM50.0229 10.0166C50.6235 10.0166 51.1265 10.1436 51.5317 10.3975C51.7661 10.5439 52.0322 10.8003 52.3301 11.1665V7.2041H53.5972V18H52.4106V16.9087C52.103 17.3921 51.7393 17.7412 51.3193 17.9561C50.8994 18.1709 50.4185 18.2783 49.8765 18.2783C49.0024 18.2783 48.2456 17.9121 47.606 17.1797C46.9663 16.4424 46.6465 15.4634 46.6465 14.2427C46.6465 13.1001 46.937 12.1113 47.5181 11.2764C48.104 10.4365 48.939 10.0166 50.0229 10.0166ZM56.6807 14.5283C56.7148 15.1387 56.8589 15.6343 57.1128 16.0151C57.5962 16.728 58.4482 17.0845 59.6689 17.0845C60.2158 17.0845 60.7139 17.0063 61.1631 16.8501C62.0322 16.5474 62.4668 16.0054 62.4668 15.2241C62.4668 14.6382 62.2837 14.2207 61.9175 13.9717C61.5464 13.7275 60.9653 13.5151 60.1743 13.3345L58.7168 13.0049C57.7646 12.79 57.0908 12.5532 56.6953 12.2944C56.0117 11.8452 55.6699 11.1738 55.6699 10.2803C55.6699 9.31348 56.0044 8.52002 56.6733 7.8999C57.3423 7.27979 58.2896 6.96973 59.5151 6.96973C60.6431 6.96973 61.6001 7.24316 62.3862 7.79004C63.1772 8.33203 63.5728 9.20117 63.5728 10.3975H62.2031C62.1299 9.82129 61.9736 9.37939 61.7344 9.07178C61.29 8.51025 60.5356 8.22949 59.4712 8.22949C58.6118 8.22949 57.9941 8.41016 57.6182 8.77148C57.2422 9.13281 57.0542 9.55273 57.0542 10.0312C57.0542 10.5586 57.2739 10.9443 57.7134 11.1885C58.0015 11.3447 58.6533 11.54 59.6689 11.7744L61.1777 12.1187C61.9053 12.2847 62.4668 12.5117 62.8623 12.7998C63.5459 13.3027 63.8877 14.0327 63.8877 14.9897C63.8877 16.1812 63.4531 17.0332 62.584 17.5459C61.7197 18.0586 60.7139 18.3149 59.5664 18.3149C58.2285 18.3149 57.1812 17.9731 56.4243 17.2896C55.6675 16.6108 55.2964 15.6904 55.311 14.5283H56.6807ZM66.5684 15.9126C66.5684 16.2935 66.7075 16.5938 66.9858 16.8135C67.2642 17.0332 67.5938 17.1431 67.9746 17.1431C68.4385 17.1431 68.8877 17.0356 69.3223 16.8208C70.0547 16.4644 70.4209 15.8809 70.4209 15.0703V14.0083C70.2598 14.1108 70.0522 14.1963 69.7983 14.2646C69.5444 14.333 69.2954 14.3818 69.0513 14.4111L68.2529 14.5137C67.7744 14.5771 67.4155 14.6772 67.1763 14.814C66.771 15.0435 66.5684 15.4097 66.5684 15.9126ZM69.7617 13.2466C70.0645 13.2075 70.2671 13.0806 70.3696 12.8657C70.4282 12.7485 70.4575 12.5801 70.4575 12.3604C70.4575 11.9111 70.2964 11.5864 69.9741 11.3862C69.6567 11.1812 69.2002 11.0786 68.6045 11.0786C67.916 11.0786 67.4277 11.2642 67.1396 11.6353C66.9785 11.8403 66.8735 12.1455 66.8247 12.5508H65.5942C65.6187 11.584 65.9312 10.9126 66.5317 10.5366C67.1372 10.1558 67.8379 9.96533 68.6338 9.96533C69.5566 9.96533 70.3062 10.1411 70.8823 10.4927C71.4536 10.8442 71.7393 11.3911 71.7393 12.1333V16.6523C71.7393 16.7891 71.7661 16.8989 71.8198 16.9819C71.8784 17.0649 71.998 17.1064 72.1787 17.1064C72.2373 17.1064 72.3032 17.104 72.3765 17.0991C72.4497 17.0894 72.5278 17.0771 72.6108 17.0625V18.0366C72.4058 18.0952 72.2495 18.1318 72.1421 18.1465C72.0347 18.1611 71.8882 18.1685 71.7026 18.1685C71.2485 18.1685 70.9189 18.0073 70.7139 17.6851C70.6064 17.5142 70.5308 17.2725 70.4868 16.96C70.2183 17.3115 69.8325 17.6167 69.3296 17.8755C68.8267 18.1343 68.2725 18.2637 67.667 18.2637C66.9395 18.2637 66.3438 18.0439 65.8799 17.6045C65.4209 17.1602 65.1914 16.606 65.1914 15.9419C65.1914 15.2144 65.4185 14.6504 65.8726 14.25C66.3267 13.8496 66.9224 13.603 67.6597 13.5103L69.7617 13.2466ZM73.9438 7.24072H75.2622V18H73.9438V7.24072ZM80.5137 9.97998C81.0703 9.97998 81.6099 10.1118 82.1323 10.3755C82.6548 10.6343 83.0527 10.9712 83.3262 11.3862C83.5898 11.7817 83.7656 12.2432 83.8535 12.7705C83.9316 13.1318 83.9707 13.708 83.9707 14.499H78.2212C78.2456 15.2949 78.4336 15.9346 78.7852 16.418C79.1367 16.8965 79.6812 17.1357 80.4185 17.1357C81.1069 17.1357 81.6562 16.9087 82.0664 16.4546C82.3008 16.1909 82.4668 15.8857 82.5645 15.5391H83.8608C83.8267 15.8271 83.7119 16.1494 83.5166 16.5059C83.3262 16.8574 83.1113 17.1455 82.8721 17.3701C82.4717 17.7607 81.9761 18.0244 81.3853 18.1611C81.0679 18.2393 80.709 18.2783 80.3086 18.2783C79.332 18.2783 78.5044 17.9243 77.8257 17.2163C77.147 16.5034 76.8076 15.5073 76.8076 14.228C76.8076 12.9683 77.1494 11.9453 77.833 11.1592C78.5166 10.373 79.4102 9.97998 80.5137 9.97998ZM82.6157 13.4517C82.562 12.8804 82.4375 12.4238 82.2422 12.082C81.8809 11.4473 81.2778 11.1299 80.4331 11.1299C79.8276 11.1299 79.3198 11.3496 78.9097 11.7891C78.4995 12.2236 78.2822 12.7778 78.2578 13.4517H82.6157Z" fill="#6F88EB"/>
<defs>
<clipPath id="clip0_3_36">
<rect width="24" height="24" fill="white"/>
</clipPath>
</defs>
</svg>
