<svg width="60" height="13" viewBox="0 0 60 13" fill="none" xmlns="http://www.w3.org/2000/svg">
<path d="M0.307617 1.24072H2.00684L5.09766 6.41162L8.18848 1.24072H9.89502L5.83008 7.66406V12H4.37256V7.66406L0.307617 1.24072ZM10.8691 9.9126C10.8691 10.2935 11.0083 10.5938 11.2866 10.8135C11.5649 11.0332 11.8945 11.1431 12.2754 11.1431C12.7393 11.1431 13.1885 11.0356 13.623 10.8208C14.3555 10.4644 14.7217 9.88086 14.7217 9.07031V8.0083C14.5605 8.11084 14.353 8.19629 14.0991 8.26465C13.8452 8.33301 13.5962 8.38184 13.3521 8.41113L12.5537 8.51367C12.0752 8.57715 11.7163 8.67725 11.4771 8.81396C11.0718 9.04346 10.8691 9.40967 10.8691 9.9126ZM14.0625 7.24658C14.3652 7.20752 14.5679 7.08057 14.6704 6.86572C14.729 6.74854 14.7583 6.58008 14.7583 6.36035C14.7583 5.91113 14.5972 5.58643 14.2749 5.38623C13.9575 5.18115 13.501 5.07861 12.9053 5.07861C12.2168 5.07861 11.7285 5.26416 11.4404 5.63525C11.2793 5.84033 11.1743 6.14551 11.1255 6.55078H9.89502C9.91943 5.58398 10.2319 4.9126 10.8325 4.53662C11.438 4.15576 12.1387 3.96533 12.9346 3.96533C13.8574 3.96533 14.6069 4.14111 15.1831 4.49268C15.7544 4.84424 16.04 5.39111 16.04 6.1333V10.6523C16.04 10.7891 16.0669 10.8989 16.1206 10.9819C16.1792 11.0649 16.2988 11.1064 16.4795 11.1064C16.5381 11.1064 16.604 11.104 16.6772 11.0991C16.7505 11.0894 16.8286 11.0771 16.9116 11.0625V12.0366C16.7065 12.0952 16.5503 12.1318 16.4429 12.1465C16.3354 12.1611 16.189 12.1685 16.0034 12.1685C15.5493 12.1685 15.2197 12.0073 15.0146 11.6851C14.9072 11.5142 14.8315 11.2725 14.7876 10.96C14.519 11.3115 14.1333 11.6167 13.6304 11.8755C13.1274 12.1343 12.5732 12.2637 11.9678 12.2637C11.2402 12.2637 10.6445 12.0439 10.1807 11.6045C9.72168 11.1602 9.49219 10.606 9.49219 9.94189C9.49219 9.21436 9.71924 8.65039 10.1733 8.25C10.6274 7.84961 11.2231 7.60303 11.9604 7.51025L14.0625 7.24658ZM18.2446 4.15576H19.4971V5.51074C19.5996 5.24707 19.8511 4.92725 20.2515 4.55127C20.6519 4.17041 21.1133 3.97998 21.6357 3.97998C21.6602 3.97998 21.7017 3.98242 21.7603 3.9873C21.8188 3.99219 21.9189 4.00195 22.0605 4.0166V5.4082C21.9824 5.39355 21.9092 5.38379 21.8408 5.37891C21.7773 5.37402 21.7065 5.37158 21.6284 5.37158C20.9644 5.37158 20.4541 5.58643 20.0977 6.01611C19.7412 6.44092 19.563 6.93164 19.563 7.48828V12H18.2446V4.15576ZM24.0381 8.16943C24.0381 9.00928 24.2163 9.7124 24.5728 10.2788C24.9292 10.8452 25.5005 11.1284 26.2866 11.1284C26.897 11.1284 27.3975 10.8672 27.7881 10.3447C28.1836 9.81738 28.3813 9.06299 28.3813 8.08154C28.3813 7.09033 28.1787 6.35791 27.7734 5.88428C27.3682 5.40576 26.8677 5.1665 26.272 5.1665C25.6079 5.1665 25.0684 5.42041 24.6533 5.92822C24.2432 6.43604 24.0381 7.18311 24.0381 8.16943ZM26.0229 4.0166C26.6235 4.0166 27.1265 4.14355 27.5317 4.39746C27.7661 4.54395 28.0322 4.80029 28.3301 5.1665V1.2041H29.5972V12H28.4106V10.9087C28.103 11.3921 27.7393 11.7412 27.3193 11.9561C26.8994 12.1709 26.4185 12.2783 25.8765 12.2783C25.0024 12.2783 24.2456 11.9121 23.606 11.1797C22.9663 10.4424 22.6465 9.46338 22.6465 8.24268C22.6465 7.1001 22.937 6.11133 23.5181 5.27637C24.104 4.43652 24.939 4.0166 26.0229 4.0166ZM32.6807 8.52832C32.7148 9.13867 32.8589 9.63428 33.1128 10.0151C33.5962 10.728 34.4482 11.0845 35.6689 11.0845C36.2158 11.0845 36.7139 11.0063 37.1631 10.8501C38.0322 10.5474 38.4668 10.0054 38.4668 9.22412C38.4668 8.63818 38.2837 8.2207 37.9175 7.97168C37.5464 7.72754 36.9653 7.51514 36.1743 7.33447L34.7168 7.00488C33.7646 6.79004 33.0908 6.55322 32.6953 6.29443C32.0117 5.84521 31.6699 5.17383 31.6699 4.28027C31.6699 3.31348 32.0044 2.52002 32.6733 1.8999C33.3423 1.27979 34.2896 0.969727 35.5151 0.969727C36.6431 0.969727 37.6001 1.24316 38.3862 1.79004C39.1772 2.33203 39.5728 3.20117 39.5728 4.39746H38.2031C38.1299 3.82129 37.9736 3.37939 37.7344 3.07178C37.29 2.51025 36.5356 2.22949 35.4712 2.22949C34.6118 2.22949 33.9941 2.41016 33.6182 2.77148C33.2422 3.13281 33.0542 3.55273 33.0542 4.03125C33.0542 4.55859 33.2739 4.94434 33.7134 5.18848C34.0015 5.34473 34.6533 5.54004 35.6689 5.77441L37.1777 6.11865C37.9053 6.28467 38.4668 6.51172 38.8623 6.7998C39.5459 7.30273 39.8877 8.03271 39.8877 8.98975C39.8877 10.1812 39.4531 11.0332 38.584 11.5459C37.7197 12.0586 36.7139 12.3149 35.5664 12.3149C34.2285 12.3149 33.1812 11.9731 32.4243 11.2896C31.6675 10.6108 31.2964 9.69043 31.311 8.52832H32.6807ZM42.5684 9.9126C42.5684 10.2935 42.7075 10.5938 42.9858 10.8135C43.2642 11.0332 43.5938 11.1431 43.9746 11.1431C44.4385 11.1431 44.8877 11.0356 45.3223 10.8208C46.0547 10.4644 46.4209 9.88086 46.4209 9.07031V8.0083C46.2598 8.11084 46.0522 8.19629 45.7983 8.26465C45.5444 8.33301 45.2954 8.38184 45.0513 8.41113L44.2529 8.51367C43.7744 8.57715 43.4155 8.67725 43.1763 8.81396C42.771 9.04346 42.5684 9.40967 42.5684 9.9126ZM45.7617 7.24658C46.0645 7.20752 46.2671 7.08057 46.3696 6.86572C46.4282 6.74854 46.4575 6.58008 46.4575 6.36035C46.4575 5.91113 46.2964 5.58643 45.9741 5.38623C45.6567 5.18115 45.2002 5.07861 44.6045 5.07861C43.916 5.07861 43.4277 5.26416 43.1396 5.63525C42.9785 5.84033 42.8735 6.14551 42.8247 6.55078H41.5942C41.6187 5.58398 41.9312 4.9126 42.5317 4.53662C43.1372 4.15576 43.8379 3.96533 44.6338 3.96533C45.5566 3.96533 46.3062 4.14111 46.8823 4.49268C47.4536 4.84424 47.7393 5.39111 47.7393 6.1333V10.6523C47.7393 10.7891 47.7661 10.8989 47.8198 10.9819C47.8784 11.0649 47.998 11.1064 48.1787 11.1064C48.2373 11.1064 48.3032 11.104 48.3765 11.0991C48.4497 11.0894 48.5278 11.0771 48.6108 11.0625V12.0366C48.4058 12.0952 48.2495 12.1318 48.1421 12.1465C48.0347 12.1611 47.8882 12.1685 47.7026 12.1685C47.2485 12.1685 46.9189 12.0073 46.7139 11.6851C46.6064 11.5142 46.5308 11.2725 46.4868 10.96C46.2183 11.3115 45.8325 11.6167 45.3296 11.8755C44.8267 12.1343 44.2725 12.2637 43.667 12.2637C42.9395 12.2637 42.3438 12.0439 41.8799 11.6045C41.4209 11.1602 41.1914 10.606 41.1914 9.94189C41.1914 9.21436 41.4185 8.65039 41.8726 8.25C42.3267 7.84961 42.9224 7.60303 43.6597 7.51025L45.7617 7.24658ZM49.9438 1.24072H51.2622V12H49.9438V1.24072ZM56.5137 3.97998C57.0703 3.97998 57.6099 4.11182 58.1323 4.37549C58.6548 4.63428 59.0527 4.97119 59.3262 5.38623C59.5898 5.78174 59.7656 6.24316 59.8535 6.77051C59.9316 7.13184 59.9707 7.70801 59.9707 8.49902H54.2212C54.2456 9.29492 54.4336 9.93457 54.7852 10.418C55.1367 10.8965 55.6812 11.1357 56.4185 11.1357C57.1069 11.1357 57.6562 10.9087 58.0664 10.4546C58.3008 10.1909 58.4668 9.88574 58.5645 9.53906H59.8608C59.8267 9.82715 59.7119 10.1494 59.5166 10.5059C59.3262 10.8574 59.1113 11.1455 58.8721 11.3701C58.4717 11.7607 57.9761 12.0244 57.3853 12.1611C57.0679 12.2393 56.709 12.2783 56.3086 12.2783C55.332 12.2783 54.5044 11.9243 53.8257 11.2163C53.147 10.5034 52.8076 9.50732 52.8076 8.22803C52.8076 6.96826 53.1494 5.94531 53.833 5.15918C54.5166 4.37305 55.4102 3.97998 56.5137 3.97998ZM58.6157 7.45166C58.562 6.88037 58.4375 6.42383 58.2422 6.08203C57.8809 5.44727 57.2778 5.12988 56.4331 5.12988C55.8276 5.12988 55.3198 5.34961 54.9097 5.78906C54.4995 6.22363 54.2822 6.77783 54.2578 7.45166H58.6157Z" fill="#6F88EB"/>
</svg>
