<?xml version="1.0" encoding="iso-8859-1"?>
<!-- Generator: Adobe Illustrator 19.0.0, SVG Export Plug-In . SVG Version: 6.00 Build 0)  -->
<svg version="1.1" id="Layer_1" xmlns="http://www.w3.org/2000/svg" xmlns:xlink="http://www.w3.org/1999/xlink" x="0px" y="0px"
	 viewBox="0 0 512.001 512.001" style="enable-background:new 0 0 512.001 512.001;" xml:space="preserve">
<polygon style="fill:#08AA6E;" points="111.357,131.207 111.357,176.743 129.657,176.743 151.549,504.411 347.028,504.411 
	368.918,176.743 387.219,176.743 387.219,131.207 "/>
<path style="fill:#2BA5B1;" d="M408.233,32.886H295.005c-18.234,0-33.07,14.835-33.07,33.07v65.252h-25.297V65.956
	c0-32.235,26.132-58.367,58.367-58.367h113.228"/>
<polyline style="fill:#FFE285;" points="235.762,245.685 189.218,245.685 189.218,415.231 352.639,415.231 363.308,245.685 
	256.001,245.685 "/>
<path style="fill:#53180F;" d="M295.004,15.178h113.228V0H295.004c-36.368,0-65.956,29.587-65.956,65.956v57.663H103.768v60.714
	h18.79l21.892,327.668h209.676l21.892-327.668h18.79v-60.714H269.525V65.956c0-14.051,11.431-25.481,25.48-25.481h113.228V25.297
	H295.004c-22.419,0-40.659,18.239-40.659,40.659v57.663h-10.119V65.956C244.228,37.956,267.007,15.178,295.004,15.178z
	 M269.525,138.796H379.63v30.358h-10.688h-7.123h-26.8v15.178h25.786l-3.592,53.763H256.001v15.178h99.227l-9.714,154.37H196.807
	V253.274h38.955v-15.178h-54.133v184.726h163.244l-4.944,74.002h-181.28L137.77,184.332h25.811v-15.178h-26.825h-7.099h-10.712
	v-30.358H229.05H269.525z"/>
<g>
</g>
<g>
</g>
<g>
</g>
<g>
</g>
<g>
</g>
<g>
</g>
<g>
</g>
<g>
</g>
<g>
</g>
<g>
</g>
<g>
</g>
<g>
</g>
<g>
</g>
<g>
</g>
<g>
</g>
</svg>
